# xmcd
#
# Track frame offsets:
#	150
#	41091
#	65261
#	78605
#	108729
#	134357
#	157994
#	180452
#	197252
#	222251
#	258589
#	293323
#
# Disc length: 4137 seconds
#
# Revision: 1
# Processed by: cddbd v1.5.2PL0 Copyright (c) Steve Scherf et al.
# Submitted via: audiograbber 1.83.01
#
DISCID=a510270c
DTITLE=Grateful Dead - 74-07-27 Roanoke Civic Centre, Roanoke VA
DYEAR=1900
DGENRE=
TTITLE0=China Cat Sunflower
TTITLE1=I Know You Rider
TTITLE2=Me and My Uncle
TTITLE3=Ramble On Rose
TTITLE4=Big River
TTITLE5=US Blues
TTITLE6=Jam
TTITLE7=Promised Land
TTITLE8=Brokedown Palace
TTITLE9=Not Fade Away
TTITLE10=Going Down The Road Feeling Bad
TTITLE11=Johnny B Goode
EXTD=
EXTT0=
EXTT1=
EXTT2=
EXTT3=
EXTT4=
EXTT5=
EXTT6=
EXTT7=
EXTT8=
EXTT9=
EXTT10=
EXTT11=
PLAYORDER=
